<!DOCTYPE svg PUBLIC "-//W3C//DTD SVG 1.1//EN" "http://www.w3.org/Graphics/SVG/1.1/DTD/svg11.dtd">
<svg version="1.1" xmlns="http://www.w3.org/2000/svg" xmlns:xlink="http://www.w3.org/1999/xlink" x="0px" y="0px"
	 width="512.01px" height="512px" viewBox="0 0 512.01 512" enable-background="new 0 0 512.01 512" xml:space="preserve">
<g id="Livello_1">
</g>
<g id="Livello_4">
	<g>
		<g>
			<defs>
				<path id="SVGID_3_" d="M440.52,375.795L415.394,86.348c0,0,0.41-9.282-6.089-17.579c-6.442-7.629-18.417-8.376-18.417-8.376
					H85.696c0,0-8.643,0-15.403,6.818c-7.148,5.757-8.342,16.721-8.342,16.721l16.611,136.264h90.486
					c6.441,0,11.716,5.765,11.716,12.603l8.828,60.849c0,7.547-5.872,12.623-12.26,12.623H82.706v67.604l-12.516,1.921l0.177,25.973
					l12.339,0.78h27.289c-2.524-24.144,8.221-46.233,27.858-55.361c25.913-11.559,58.657,3.402,73.947,34.373
					c3.074,6.844,5.283,13.736,6.097,20.988h82.166c-1.553-22.547,8.208-43.558,26.285-53.491
					c25.893-13.429,59.25-0.832,75.095,29.013c4.125,7.714,6.721,16.086,7.862,24.479h31.215h10.549v-26.391L440.52,375.795z
					 M162.726,175.823h-47.89c-5.43,0-9.935-4.563-9.935-9.96l-3.95-49.413c0-5.96,4.544-10.153,9.852-10.153h48.048
					c5.289,0,9.388,4.193,9.388,10.153l4.534,49.413C172.773,171.26,168.24,175.823,162.726,175.823z M211.818,164.804
					l-4.127-49.122c0-5.586,4.127-10.163,9.401-10.163h48.075c5.285,0,9.771,4.577,9.771,10.163l4.131,49.122
					c0,6.058-4.506,10.217-9.425,10.217h-48.437C215.95,175.021,211.818,170.861,211.818,164.804z M278.666,297.865h-48.089
					c-5.235,0-9.371-4.992-9.371-9.961l-4.506-49.364c0-5.686,4.506-9.972,9.74-9.972h48.098c5.29,0,9.74,4.286,9.74,9.972
					l4.097,49.364C288.375,292.873,283.951,297.865,278.666,297.865z M316.927,166.647l-4.125-49.338
					c0-5.849,4.515-9.963,9.79-9.963h48.07c5.253,0,9.778,4.114,9.778,9.963l4.165,49.338c0,5.39-4.533,9.647-9.818,9.647h-48.063
					C321.452,176.295,316.927,172.037,316.927,166.647z M381.862,297.06h-48.049c-5.274,0-9.798-4.579-9.798-9.972l-4.104-49.324
					c0-5.764,4.248-9.968,9.775-9.968h48.058c5.284,0,9.419,4.204,9.419,9.968l4.116,49.324
					C391.28,292.48,387.164,297.06,381.862,297.06z"/>
			</defs>
			<use xlink:href="#SVGID_3_"  overflow="visible" fill="#2975A7"/>
			<clipPath id="SVGID_2_">
				<use xlink:href="#SVGID_3_"  overflow="visible"/>
			</clipPath>
			<g clip-path="url(#SVGID_2_)">
				<polygon fill="#2975A7" points="240.803,97.127 240.803,97.127 336.535,34.405 121.22,175.448 				"/>
				<path fill="#2975A7" d="M358.75,353.234l94.116-131.459L240.803,99.709v-1.806l-62.744,209.391
					C240.803,306.27,303.413,321.884,358.75,353.234z"/>
				<path fill="#2975A7" d="M178.059,307.294l62.744-209.391v-0.776L121.22,175.448L16.253,243.923v105.915
					c43.429-23.386,90.03-37.189,136.696-41.288C161.51,308.098,169.818,307.294,178.059,307.294z"/>
				<path fill="#2975A7" d="M358.75,353.234c-55.338-31.351-117.948-46.965-180.692-45.94c-8.241,0-16.549,0.804-25.109,1.256
					c-46.666,4.099-93.268,17.902-136.696,41.288v140.633c0,8.147,7.049,15.346,15.309,15.346h218.27L331.25,391.54L358.75,353.234z
					"/>
				<path fill="#2975A7" d="M488.148,10.25H352.999c0,0.02,0,0.02-0.018,0.317c-4.476,15.771-16.446,23.839-16.446,23.839
					l-95.732,62.722l0,0v0.776v1.806l212.063,122.066l50.349-70.346V25.239C503.215,16.847,496.412,10.25,488.148,10.25z"/>
				<path fill="#2975A7" d="M358.75,353.234l-27.5,38.306l-81.418,114.276h238.316c8.264,0,15.067-7.198,15.067-15.346V151.43
					l-50.349,70.346L358.75,353.234z"/>
				<path fill="#2975A7" d="M336.535,34.405c0,0,11.97-8.067,16.446-23.839c0.018-0.297,0.018-0.297,0.018-0.317H31.562
					c-8.26,0-15.309,6.597-15.309,14.99v218.684l104.966-68.475L336.535,34.405z"/>
				<path display="none" fill="#2975A7" d="M-5.521-13.771v540.974h530.957V-13.771H-5.521z M503.215,151.43v339.041
					c0,8.147-6.803,15.346-15.067,15.346H249.832H31.562c-8.26,0-15.309-7.198-15.309-15.346V349.838V243.923V25.239
					c0-8.393,7.049-14.99,15.309-14.99h321.437h135.149c8.264,0,15.067,6.597,15.067,14.99V151.43z"/>
			</g>
		</g>
		<g>
			<path fill="#2975A7" d="M202.506,402.656c-0.75-4.733-2.213-9.814-4.665-14.962c-11.024-22.4-34.668-33.371-53.833-24.666
				c-14.341,6.226-22.18,22.178-20.422,39.628c0.447,6.256,2.158,12.092,4.741,18.257c11.015,23.48,36.284,34.764,55.394,24.95
				C198.504,438.559,205.317,420.913,202.506,402.656z M171.813,421.706c-0.361,0.236-0.613,0.617-1.01,0.816
				c-8.236,3.762-18.646-0.897-23.169-10.767c-1.546-3.411-2.193-6.551-2.193-9.208h1.324c-0.154-6.654,2.98-12.763,8.583-15.626
				c7.844-3.452,17.662,1.538,22.481,10.666c0.991,1.97,1.799,4.197,1.927,6.519C181.087,411.756,178.029,418.972,171.813,421.706z"
				/>
			<path fill="#2975A7" d="M148.894,411.734c-1.39-2.599-2.148-5-2.178-7.628c-0.048-0.536,0.068-1.04,0.049-1.559h-1.324
				c0,2.657,0.647,5.797,2.193,9.208c4.522,9.869,14.933,14.528,23.169,10.767c0.397-0.199,0.649-0.58,1.01-0.816l-0.01,0.011
				C163.949,425.872,153.422,421.258,148.894,411.734z"/>
		</g>
		<g>
			<path fill="#2975A7" d="M395.808,402.675c-0.73-5.488-2.753-11.98-5.744-17.469c-11.745-22.148-36.333-30.883-54.966-21.383
				c-13.529,7.253-20.623,22.905-19.568,38.852c0.374,7.219,2.451,14.2,5.75,20.817c11.764,22.998,37.394,32.539,56.672,21.324
				C391.523,436.843,398.259,420.108,395.808,402.675z M364.063,421.717c-7.852,4.155-18.38-0.459-22.915-9.982
				c-1.384-2.599-2.144-5-2.174-7.628c-0.763-7.271,2.584-14.105,8.629-17.185c7.849-3.452,17.665,1.538,22.485,10.666
				c0.986,1.97,1.8,4.197,1.927,6.519C373.348,411.756,370.285,418.982,364.063,421.717z"/>
		</g>
	</g>
</g>
<g id="Livello_2" display="none">
	<rect x="61.729" y="60.307" display="inline" opacity="0.6" fill="#666666" width="389.118" height="389.119"/>
</g>
<g id="Livello_3">
	<rect display="none" opacity="0.6" fill="#666666" width="512.01" height="512"/>
</g>
</svg>
