<?xml version="1.0" standalone="no"?>
<!DOCTYPE svg PUBLIC "-//W3C//DTD SVG 1.1//EN" "http://www.w3.org/Graphics/SVG/1.1/DTD/svg11.dtd" >
<svg xmlns="http://www.w3.org/2000/svg">
<metadata>Generated by IcoMoon</metadata>
<defs>
<font id="CIT" horiz-adv-x="512">
<font-face units-per-em="512" ascent="480" descent="-32" />
<missing-glyph horiz-adv-x="512" />
<glyph unicode="&#x20;" horiz-adv-x="256" d="" />
<glyph unicode="&#xe900;" glyph-name="new-reorder" d="M25.6 147.2h460.8v51.2h-460.8v-51.2zM25.6 44.8h460.8v51.2h-460.8v-51.2zM25.6 249.6h460.8v51.2h-460.8v-51.2zM25.6 403.2v-51.2h460.8v51.2h-460.8z" />
<glyph unicode="&#xe901;" glyph-name="new-share" d="M25.6 44.774c0 0 36.096 149.12 96.307 197.248 60.263 48.231 168.755 50.791 168.755 50.791v110.413l195.738-159.693-189.747-159.155v101.99c0 0-89.933 13.849-136.192-8.192-59.315-28.262-134.861-133.401-134.861-133.401z" />
<glyph unicode="&#xe902;" glyph-name="new-star" d="M256 444.39l68.966-148.198 161.433-20.147-118.81-111.744 30.797-160.691-142.387 79.181-142.362-79.181 30.771 160.691-118.809 111.744 161.485 20.147z" />
<glyph unicode="&#xe903;" glyph-name="new-search" d="M354.918 164.634h-20.915l-7.271 7.245c25.856 29.901 41.37 68.762 41.37 111.283 0 94.592-76.672 171.238-171.264 171.238s-171.238-76.647-171.238-171.238c0-94.567 76.672-171.238 171.238-171.238 42.547 0 81.408 15.539 111.334 41.216l7.245-7.245v-20.813l131.738-131.482 39.245 39.296-131.481 131.738zM196.839 164.634c-65.485 0-118.553 53.069-118.553 118.528s53.069 118.553 118.553 118.553 118.579-53.094 118.579-118.553-53.094-118.528-118.579-118.528z" />
<glyph unicode="&#xe904;" glyph-name="new-phone" d="M118.272 254.976c36.864-72.448 96.256-131.584 168.704-168.678l56.32 56.294c6.912 6.912 17.152 9.216 26.112 6.17 28.672-9.498 59.648-14.592 91.392-14.592 14.080 0 25.6-11.52 25.6-25.6v-89.37c0-14.055-11.52-25.6-25.6-25.6-240.384 0-435.2 194.816-435.2 435.2 0 14.080 11.52 25.6 25.6 25.6h89.6c14.080 0 25.6-11.52 25.6-25.6 0-32 5.12-62.72 14.592-91.366 2.816-8.96 0.768-18.944-6.4-26.112l-56.32-56.346z" />
<glyph unicode="&#xe905;" glyph-name="new-email" d="M440.32 408.294h-368.64c-25.319 0-45.849-20.71-45.849-46.054l-0.23-276.454c0-25.37 20.761-46.080 46.080-46.080h368.64c25.319 0 46.080 20.736 46.080 46.080v276.454c0 25.37-20.762 46.054-46.080 46.054zM440.32 316.185l-184.32-115.2-184.32 115.2v46.055l184.32-115.2 184.32 115.2v-46.055z" />
<glyph unicode="&#xe906;" glyph-name="new-website" d="M69.376 224c0 39.373 32.025 71.424 71.424 71.424h92.185v43.776h-92.185c-63.565 0-115.2-51.61-115.2-115.2s51.635-115.2 115.2-115.2h92.185v43.776h-92.185c-39.398 0-71.424 32.026-71.424 71.424zM163.84 200.96h184.32v46.080h-184.32v-46.080zM371.2 339.2h-92.16v-43.776h92.16c39.399 0 71.424-32.025 71.424-71.424s-32.026-71.424-71.424-71.424h-92.16v-43.776h92.16c63.591 0 115.2 51.609 115.2 115.2s-51.609 115.2-115.2 115.2z" />
<glyph unicode="&#xe907;" glyph-name="new-map" d="M473.6 454.4l-4.096-0.768-136.704-52.992-153.6 53.76-144.384-48.614c-5.376-1.817-9.216-6.425-9.216-12.288v-387.098c0-7.142 5.657-12.8 12.8-12.8l4.096 0.768 136.704 52.992 153.6-53.76 144.409 48.666c5.351 1.792 9.19 6.375 9.19 12.262v387.072c0 7.168-5.658 12.8-12.8 12.8zM332.8 44.8l-153.6 54.016v304.384l153.6-54.016v-304.384z" />
<glyph unicode="&#xe908;" glyph-name="new-filter" d="M204.8 70.4h102.4v51.2h-102.4v-51.2zM25.6 377.6v-51.2h460.8v51.2h-460.8zM102.4 198.4h307.2v51.2h-307.2v-51.2z" />
<glyph unicode="&#xe909;" glyph-name="new-itinerary" d="M256 482.074c-100.659 0-182.169-81.511-182.169-182.119 0-136.679 182.169-334.029 182.169-334.029s182.144 197.351 182.144 334.003c0.026 100.633-81.51 182.144-182.144 182.144zM256 239.181c-33.587 0-60.723 27.187-60.723 60.749 0 33.536 27.161 60.697 60.723 60.697s60.697-27.187 60.697-60.697c0.026-33.561-27.136-60.749-60.697-60.749z" />
<glyph unicode="&#xe90a;" glyph-name="new-navigate" d="M256 454.4l-181.888-443.699 17.075-17.101 164.813 72.729 164.813-72.73 17.101 17.101-181.913 443.699z" />
<glyph unicode="&#xe90b;" glyph-name="new-conoscere" d="M256 242.125c-58.957 54.733-137.575 88.346-224.281 88.346v-274.125c86.733 0 165.325-33.613 224.281-88.346 58.931 54.733 137.575 88.346 224.281 88.346v274.125c-86.707 0-165.351-33.613-224.281-88.346zM256 330.471c41.241 0 74.752 33.536 74.752 74.752 0 41.267-33.51 74.778-74.752 74.778s-74.752-33.511-74.752-74.752c0-41.242 33.511-74.777 74.752-74.777z" />
<glyph unicode="&#xe90c;" glyph-name="new-visitare" d="M186.88 431.36l-42.163-46.106h-73.037c-25.344 0-46.080-20.711-46.080-46.054v-276.455c0-25.344 20.736-46.080 46.080-46.080h368.64c25.344 0 46.080 20.736 46.080 46.080v276.454c0 25.344-20.762 46.055-46.080 46.055h-73.037l-42.163 46.105h-138.24zM256 85.76c-63.59 0-115.2 51.635-115.2 115.2 0 63.59 51.609 115.2 115.2 115.2s115.2-51.61 115.2-115.2c0-63.565-51.609-115.2-115.2-115.2z" />
<glyph unicode="&#xe90d;" glyph-name="new-eventi" d="M369.459 338.227c0-78.299-50.798-141.773-113.459-141.773s-113.459 63.474-113.459 141.773c0 78.299 50.798 141.773 113.459 141.773s113.459-63.474 113.459-141.773zM268.979-32l-25.984 15.488c30.029 50.304 51.635 105.83 45.415 116.685-0.128-0.333-7.987 1.382-32.922-11.725-7.987-4.224-16.512-3.661-22.758 1.485-5.837 4.787-19.456 15.974 8.755 110.822l29.005-8.601c-7.987-26.906-14.029-54.451-15.719-70.425 19.303 8.55 41.677 13.926 55.731-0.87 26.573-28.032-14.592-107.801-41.523-152.858z" />
<glyph unicode="&#xe90e;" glyph-name="new-percorsi" d="M479.667 240.231l-207.411 207.411c-8.986 9.011-23.501 9.011-32.512 0l-207.411-207.411c-8.986-9.011-8.986-23.501 0-32.512l207.411-207.411c9.011-8.986 23.526-8.986 32.512 0l207.411 207.411c8.96 8.781 8.96 23.27 0 32.512zM301.978 166.272v57.6h-92.185v-69.146h-46.080v92.185c0 12.672 10.368 23.040 23.040 23.040h115.225v57.6l80.666-80.666-80.666-80.615z" />
<glyph unicode="&#xe90f;" glyph-name="new-mangiare_e_dormire" d="M154.752 196.813l68.198 68.198-169.165 168.96c-37.581-37.606-37.581-98.56 0-136.423l100.966-100.736zM318.157 240.435c36.864-17.101 88.704-5.069 127.002 33.255 46.029 46.029 54.938 112.051 19.533 147.482-35.2 35.2-101.222 26.521-147.507-19.507-38.323-38.349-50.355-90.137-33.255-127.027l-235.213-235.213 33.971-33.971 166.042 165.555 165.811-165.811 33.997 33.971-165.811 165.811 35.43 35.456z" />
<glyph unicode="&#xe910;" glyph-name="new-info_utili" d="M232.96 108.8h46.080v138.24h-46.080v-138.24zM256 454.4c-127.309 0-230.4-103.091-230.4-230.4s103.091-230.4 230.4-230.4 230.4 103.091 230.4 230.4c0 127.309-103.091 230.4-230.4 230.4zM256 39.654c-101.606 0-184.32 82.739-184.32 184.346s82.714 184.32 184.32 184.32c101.606 0 184.32-82.714 184.32-184.32s-82.714-184.346-184.32-184.346zM232.96 293.12h46.080v46.080h-46.080v-46.080z" />
<glyph unicode="&#xe911;" glyph-name="new-star-outline" d="M127.872 3.738c-4.787 0-9.523 1.485-13.543 4.403-7.219 5.248-10.752 14.208-9.063 22.963l25.139 131.226-97.51 91.392c-6.528 6.118-8.909 15.437-6.169 23.936 2.765 8.499 10.189 14.643 19.047 15.744l132.608 16.615 56.755 120.986c3.789 8.089 11.929 13.261 20.864 13.261s17.050-5.145 20.839-13.261l56.806-120.986 132.582-16.615c8.858-1.101 16.281-7.245 19.046-15.744 2.739-8.499 0.358-17.817-6.17-23.936l-97.485-91.367 25.165-131.226c1.69-8.781-1.843-17.715-9.063-22.963-7.245-5.248-16.845-5.863-24.653-1.562l-117.017 64.487-117.069-64.486c-3.482-1.92-7.296-2.867-11.111-2.867zM100.224 253.798l70.937-66.483c5.786-5.401 8.371-13.363 6.887-21.146l-18.304-95.514 85.197 46.925c6.912 3.815 15.335 3.815 22.246 0l85.145-46.925-18.304 95.488c-1.51 7.757 1.101 15.744 6.861 21.146l70.938 66.483-96.486 12.083c-7.859 0.998-14.618 5.913-17.997 13.082l-41.344 88.038-41.293-88.038c-3.353-7.143-10.163-12.083-17.997-13.056l-96.487-12.083z" />
<glyph unicode="&#xe912;" glyph-name="new-calendar" d="M371.2 247.040h-230.4v-46.080h230.4v46.080zM417.28 408.32h-23.040v46.080h-46.080v-46.080h-184.32v46.080h-46.080v-46.080h-23.040c-25.472 0-45.875-20.608-45.875-46.080l-0.205-322.56c0-25.472 20.633-46.080 46.080-46.080h322.56c25.472 0 46.080 20.634 46.080 46.080v322.56c0 25.472-20.634 46.080-46.080 46.080zM417.28 39.68h-322.56v253.44h322.56v-253.44zM302.080 154.88h-161.28v-46.080h161.28v46.080z" />
<glyph unicode="&#xe913;" glyph-name="new-clock" d="M268.8 352h-38.4v-153.6l121.472-73.088 19.328 31.616-102.4 60.672v134.4zM255.872 454.4c-127.36 0-230.272-103.168-230.272-230.4s102.912-230.4 230.272-230.4c127.36 0 230.528 103.168 230.528 230.4s-103.168 230.4-230.528 230.4zM256 44.8c-98.944 0-179.2 80.256-179.2 179.2s80.256 179.2 179.2 179.2 179.2-80.256 179.2-179.2c0-98.944-80.128-179.2-179.2-179.2z" />
<glyph unicode="&#xe914;" glyph-name="new-tag" d="M380.544 373.274c-8.858 12.365-23.296 20.48-39.654 20.48l-266.777-0.231c-26.803 0-48.512-21.453-48.512-48.256v-242.535c0-26.803 21.709-48.281 48.512-48.281l266.777-0.231c16.358 0 30.797 8.115 39.654 20.48l105.856 149.299-105.856 149.274z" />
<glyph unicode="&#xe915;" glyph-name="new-flag" d="M307.507 400.179l-10.854 54.221h-243.942v-460.8h54.221v189.747h151.783l10.854-54.221h189.747v271.053h-151.808z" />
<glyph unicode="&#xe916;" glyph-name="new-check" d="M256 454.4c-127.283 0-230.4-103.117-230.4-230.4 0-127.181 103.117-230.4 230.4-230.4 127.181 0 230.4 103.219 230.4 230.4 0 127.283-103.219 230.4-230.4 230.4zM209.92 108.8l-115.2 115.2 32.589 32.589 82.611-82.585 174.745 174.745 32.615-32.589-207.36-207.36z" />
<glyph unicode="&#xe917;" glyph-name="new-price" d="M256 454.4c-127.027 0-230.4-103.373-230.4-230.4s103.347-230.4 230.4-230.4c127.053 0 230.4 103.347 230.4 230.4 0 127.027-103.347 230.4-230.4 230.4zM256 29.926c-106.983 0-194.048 87.040-194.048 194.048 0 107.034 87.040 194.074 194.048 194.074s194.073-87.040 194.073-194.074c-0.026-106.983-87.065-194.048-194.073-194.048zM280.729 300.416c22.759 0 40.166-6.041 59.367-14.208l4.992 40.192c-18.125 8.883-41.6 13.159-64.358 13.159-54.041 0-96.358-32.358-109.133-84.608h-25.959l-9.959-28.826h32v-4.966c0-6.759 0.358-13.517 1.075-19.558h-32.717l-10.675-30.592h51.2c17.075-42.675 56.167-68.25 104.167-68.25 22.759 0 46.233 4.275 64.358 13.159l-4.966 40.166c-19.2-8.192-36.633-14.233-59.367-14.233-26.317 0-44.441 10.675-55.117 29.159h65.075l10.675 30.592h-85.709c-1.075 6.041-1.434 12.442-1.434 19.558v4.966h83.2l10.675 28.8h-89.242c8.525 27.75 28.441 45.491 61.85 45.491z" />
</font>
</defs>
</svg>
